<svg xmlns="http://www.w3.org/2000/svg" viewBox="0 0 256 256" role="img" aria-label="Dotfiles">
  <rect width="256" height="256" rx="56" fill="#0f172a"/>
  <path d="M96 56 h48 l32 32 v100 a8 8 0 0 1 -8 8 h-72 a8 8 0 0 1 -8 -8 v-124 a8 8 0 0 1 8 -8 z"
        fill="#0f172a" stroke="#334155" stroke-width="5" stroke-linejoin="round"/>
  <path d="M112 72 h48 l32 32 v100 a8 8 0 0 1 -8 8 h-72 a8 8 0 0 1 -8 -8 v-124 a8 8 0 0 1 8 -8 z"
        fill="#0f172a" stroke="#64748b" stroke-width="5" stroke-linejoin="round"/>
  <path d="M128 88 h48 l32 32 v100 a8 8 0 0 1 -8 8 h-72 a8 8 0 0 1 -8 -8 v-124 a8 8 0 0 1 8 -8 z"
        fill="#0f172a" stroke="#e2e8f0" stroke-width="6" stroke-linejoin="round"/>
  <path d="M176 88 v24 a8 8 0 0 0 8 8 h24"
        fill="none" stroke="#e2e8f0" stroke-width="6" stroke-linejoin="round"/>
  <line x1="144" y1="148" x2="192" y2="148" stroke="#475569" stroke-width="5" stroke-linecap="round"/>
  <line x1="144" y1="168" x2="200" y2="168" stroke="#475569" stroke-width="5" stroke-linecap="round"/>
  <line x1="144" y1="188" x2="180" y2="188" stroke="#475569" stroke-width="5" stroke-linecap="round"/>
  <circle cx="56" cy="180" r="20" fill="#38bdf8"/>
</svg>
